HIERARCHY
ROOT joint_Root
{
	OFFSET 0.0 0.0 0.0
	CHANNELS 6 Xposition Yposition Zposition Zrotation Xrotation Yrotation 
	JOINT Hips
	{
		OFFSET -17.1583 93.1646 452.98
		CHANNELS 6 Xposition Yposition Zposition Zrotation Xrotation Yrotation 
		JOINT Spine
		{
			OFFSET 15.7357 0.0 0.0
			CHANNELS 6 Xposition Yposition Zposition Zrotation Xrotation Yrotation 
			JOINT Chest
			{
				OFFSET 8.98455 -0.406207 0.0
				CHANNELS 6 Xposition Yposition Zposition Zrotation Xrotation Yrotation 
				JOINT Neck
				{
					OFFSET 16.3773 0.0 0.0
					CHANNELS 6 Xposition Yposition Zposition Zrotation Xrotation Yrotation 
					JOINT Head
					{
						OFFSET 6.45672 0.0 0.0
						CHANNELS 6 Xposition Yposition Zposition Zrotation Xrotation Yrotation 
						End Site
						{
							OFFSET 0.0 0.0 0.0
						}
					}
				}
				JOINT Shoulder_L
				{
					OFFSET 12.9942 -0.242716 4.98039
					CHANNELS 6 Xposition Yposition Zposition Zrotation Xrotation Yrotation 
					JOINT UpperArm_L
					{
						OFFSET 5.34809 0.0 0.0
						CHANNELS 6 Xposition Yposition Zposition Zrotation Xrotation Yrotation 
						JOINT LowerArm_L
						{
							OFFSET 24.3286 1.87007e-05 0.0
							CHANNELS 6 Xposition Yposition Zposition Zrotation Xrotation Yrotation 
							JOINT Hand_L
							{
								OFFSET 22.2916 0.0 0.0
								CHANNELS 6 Xposition Yposition Zposition Zrotation Xrotation Yrotation 
								End Site
								{
									OFFSET 0.0 0.0 0.0
								}
							}
						}
					}
				}
				JOINT Shoulder_R
				{
					OFFSET 12.9945 -0.242716 -4.98039
					CHANNELS 6 Xposition Yposition Zposition Zrotation Xrotation Yrotation 
					JOINT UpperArm_R
					{
						OFFSET -5.34813 0.0 0.0
						CHANNELS 6 Xposition Yposition Zposition Zrotation Xrotation Yrotation 
						JOINT LowerArm_R
						{
							OFFSET -24.3289 0.000322201 0.0
							CHANNELS 6 Xposition Yposition Zposition Zrotation Xrotation Yrotation 
							JOINT Hand_R
							{
								OFFSET -22.2915 -0.000108084 0.0
								CHANNELS 6 Xposition Yposition Zposition Zrotation Xrotation Yrotation 
								End Site
								{
									OFFSET 0.0 0.0 0.0
								}
							}
						}
					}
				}
			}
		}
		JOINT UpperLeg_L
		{
			OFFSET -2.19248 -6.46944 0.0
			CHANNELS 6 Xposition Yposition Zposition Zrotation Xrotation Yrotation 
			JOINT LowerLeg_L
			{
				OFFSET 39.0811 0.0 -1.23785e-05
				CHANNELS 6 Xposition Yposition Zposition Zrotation Xrotation Yrotation 
				JOINT Foot_L
				{
					OFFSET 40.9854 0.0 -1.26872e-05
					CHANNELS 6 Xposition Yposition Zposition Zrotation Xrotation Yrotation 
					JOINT Toes_L
					{
						OFFSET 11.7543 0.0 0.0
						CHANNELS 6 Xposition Yposition Zposition Zrotation Xrotation Yrotation 
						End Site
						{
							OFFSET 0.0 0.0 0.0
						}
					}
				}
			}
		}
		JOINT UpperLeg_R
		{
			OFFSET -2.19251 6.46944 0.0
			CHANNELS 6 Xposition Yposition Zposition Zrotation Xrotation Yrotation 
			JOINT LowerLeg_R
			{
				OFFSET -39.0811 -0.00228153 -0.0401928
				CHANNELS 6 Xposition Yposition Zposition Zrotation Xrotation Yrotation 
				JOINT Foot_R
				{
					OFFSET -40.9854 0.0 0.0
					CHANNELS 6 Xposition Yposition Zposition Zrotation Xrotation Yrotation 
					JOINT Toes_R
					{
						OFFSET -11.7543 0.0 0.0
						CHANNELS 6 Xposition Yposition Zposition Zrotation Xrotation Yrotation 
						End Site
						{
							OFFSET 0.0 0.0 0.0
						}
					}
				}
			}
		}
	}
}
MOTION
Frames:	4
Frame Time:	0.0333333
0.000000 0.000000 0.000000 0.000000 0.000000 -0.000000 131.112000 89.091700 234.503000 127.671000 -76.724800 31.992000 15.735700 0.000005 -0.000001 100.427000 88.202600 -102.532000 8.984550 -0.406207 -0.000000 -4.211320 0.870006 -4.180400 16.377300 -0.000001 -0.000001 -0.631406 -2.867280 0.705693 6.456720 -0.000001 -0.000000 -1.119240 -5.124200 0.748801 12.994200 -0.242716 4.980390 -92.879100 7.992180 -70.114400 5.348090 -0.000007 -0.000001 -63.601300 -10.325500 11.697300 24.328600 0.000019 0.000005 7.513550 28.260200 -15.565800 22.291600 -0.000001 0.000005 49.457600 4.358180 18.885300 12.994500 -0.242716 -4.980390 89.127900 2.827470 -72.850400 -5.348130 -0.000001 -0.000004 -74.862400 10.207400 -4.877450 -24.328900 0.000322 -0.000009 -0.391822 -0.500051 -38.002100 -22.291500 -0.000108 -0.000004 43.887100 5.491020 -6.174580 -2.192480 -6.469440 -0.000000 176.749000 8.362370 -31.248600 39.081100 -0.000007 -0.000012 0.158097 -0.256841 31.614100 40.985400 -0.000006 -0.000013 -2.655960 8.200700 -62.332800 11.754300 -0.000000 0.000003 0.001369 0.140027 -10.898300 -2.192510 6.469440 -0.000001 173.797000 -0.730784 -175.542000 -39.081100 -0.002282 -0.040193 0.014524 -0.014128 38.509700 -40.985400 0.000008 0.000006 2.248910 12.320600 -45.912100 -11.754300 -0.000006 -0.000006 -0.101843 -0.449106 -35.326300
0.000000 0.000000 0.000000 0.000000 0.000000 -0.000000 126.888000 89.107500 236.328000 132.467000 -77.592200 38.621400 15.735700 0.000005 -0.000001 91.261300 87.723900 -93.510000 8.984550 -0.406207 -0.000000 -3.204850 0.315310 -4.489510 16.377300 -0.000001 -0.000001 -0.421548 -2.187150 0.550753 6.456720 -0.000001 -0.000000 -0.695664 -4.126800 0.950571 12.994200 -0.242716 4.980390 -92.928900 8.152810 -70.161500 5.348090 -0.000007 -0.000001 -66.243800 -9.496270 7.193100 24.328600 0.000019 0.000005 7.429570 28.385400 -15.338800 22.291600 -0.000001 0.000005 49.667300 4.355860 18.921800 12.994500 -0.242716 -4.980390 89.093200 2.942860 -72.865200 -5.348130 -0.000001 -0.000004 -75.380200 11.836200 -3.637440 -24.328900 0.000322 -0.000009 -0.244735 -0.448132 -28.100400 -22.291500 -0.000108 -0.000004 43.473900 5.489980 -6.136500 -2.192480 -6.469440 -0.000000 175.075000 8.001340 -27.628600 39.081100 -0.000007 -0.000012 0.275846 -0.400614 34.550000 40.985400 -0.000006 -0.000013 -1.042320 7.376110 -65.718600 11.754300 -0.000000 0.000003 0.000304 0.162347 -9.992350 -2.192510 6.469440 -0.000001 172.795000 -2.243480 178.794000 -39.081100 -0.002282 -0.040193 0.128900 -0.107136 49.547700 -40.985400 0.000008 0.000006 -5.592390 7.578210 -32.116600 -11.754300 -0.000006 -0.000006 0.000483 0.008568 -16.225900
0.000000 0.000000 0.000000 0.000000 0.000000 -0.000000 123.040000 89.255200 237.750000 138.465000 -78.802500 46.366700 15.735700 0.000005 -0.000001 80.858900 87.168200 -83.080700 8.984550 -0.406207 -0.000000 -2.184270 -0.706692 -4.456510 16.377300 -0.000001 -0.000001 -0.139668 -1.056800 -0.162283 6.456720 -0.000001 -0.000000 -0.279887 -2.549460 1.082540 12.994200 -0.242716 4.980390 -92.991600 8.312250 -70.125100 5.348090 -0.000007 -0.000001 -68.724100 -7.760500 3.284750 24.328600 0.000019 0.000005 8.365680 27.667400 -17.573100 22.291600 -0.000001 0.000005 49.533300 4.370570 18.690000 12.994500 -0.242716 -4.980390 89.045000 3.110440 -72.922200 -5.348130 -0.000001 -0.000004 -75.456900 13.667500 -2.877130 -24.328900 0.000322 -0.000009 1.492320 4.547850 -18.273600 -22.291500 -0.000108 -0.000004 43.854000 5.488540 -6.078810 -2.192480 -6.469440 -0.000000 173.643000 4.808720 -23.335800 39.081100 -0.000007 -0.000012 0.355143 -0.496199 35.592900 40.985400 -0.000006 -0.000013 0.756701 8.459010 -68.684700 11.754300 -0.000000 0.000003 -0.000706 0.178766 -9.325460 -2.192510 6.469440 -0.000001 172.339000 -3.148250 172.511000 -39.081100 -0.002282 -0.040193 0.288000 -0.174463 58.508500 -40.985400 0.000008 0.000006 -7.812090 -0.258133 -21.072500 -11.754300 -0.000006 -0.000006 0.001459 0.137777 -10.986000
0.000000 0.000000 0.000000 0.000000 0.000000 -0.000000 119.166000 89.812500 238.806000 140.953000 -80.006000 50.333400 15.735700 0.000005 -0.000001 71.260400 86.639900 -73.197900 8.984550 -0.406207 -0.000000 -1.433200 -2.003030 -3.899090 16.377300 -0.000001 -0.000001 0.349134 -0.008198 -0.899317 6.456720 -0.000001 -0.000000 0.225698 -0.915863 0.796840 12.994200 -0.242716 4.980390 -92.875800 7.969210 -70.082600 5.348090 -0.000007 -0.000001 -70.752200 -3.938070 -0.068533 24.328600 0.000019 0.000005 10.540500 27.451600 -21.979000 22.291600 -0.000001 0.000005 50.067200 4.359240 18.867400 12.994500 -0.242716 -4.980390 89.149600 2.760080 -72.867800 -5.348130 -0.000001 -0.000004 -75.889300 11.370600 -0.390257 -24.328900 0.000322 -0.000009 2.245070 10.596300 -12.050500 -22.291500 -0.000108 -0.000004 44.458400 5.484170 -5.913080 -2.192480 -6.469440 -0.000000 173.490000 1.209820 -18.029900 39.081100 -0.000007 -0.000012 0.365730 -0.543089 33.958000 40.985400 -0.000006 -0.000013 2.332950 10.444900 -70.801600 11.754300 -0.000000 0.000003 -0.001441 0.189110 -8.905060 -2.192510 6.469440 -0.000001 173.114000 -3.214020 167.066000 -39.081100 -0.002282 -0.040193 0.294268 -0.127021 66.427400 -40.985400 0.000008 0.000006 -7.122160 -1.691960 -28.054700 -11.754300 -0.000006 -0.000006 0.001454 0.137900 -10.981000
